<?xml version="1.0" standalone="no"?>
<!DOCTYPE svg PUBLIC "-//W3C//DTD SVG 20010904//EN"
 "http://www.w3.org/TR/2001/REC-SVG-20010904/DTD/svg10.dtd">
<svg version="1.0" xmlns="http://www.w3.org/2000/svg"
 width="236.000000pt" height="214.000000pt" viewBox="0 0 236.000000 214.000000"
 preserveAspectRatio="xMidYMid meet">
<metadata>
Created by potrace 1.16, written by Peter Selinger 2001-2019
</metadata>
<g transform="translate(0.000000,214.000000) scale(0.100000,-0.100000)"
fill="#000000" stroke="none">
<path d="M1 1658 l1 -483 18 91 c10 51 32 125 49 165 17 41 31 77 31 81 0 23
135 203 205 273 186 188 418 300 725 348 14 2 -212 5 -502 6 l-528 1 1 -482z"/>
<path d="M1385 2124 c501 -85 889 -443 965 -891 4 -28 8 147 9 430 l1 477
-527 -1 c-480 -1 -521 -2 -448 -15z"/>
<path d="M1033 2109 c-87 -10 -211 -41 -301 -75 -130 -49 -351 -185 -320 -197
11 -4 11 -7 0 -15 -8 -5 -10 -16 -5 -28 6 -17 5 -17 -10 -5 -16 12 -17 10 -13
-23 6 -46 13 -57 31 -49 22 8 18 -14 -5 -34 -11 -10 -20 -22 -20 -27 0 -5 11
3 25 18 13 14 29 26 36 26 7 0 5 8 -6 20 -10 11 -13 20 -7 20 6 0 9 6 6 14 -3
8 0 17 6 21 8 5 11 -1 8 -16 -4 -33 13 -51 30 -30 10 13 12 3 8 -61 -4 -71
-14 -104 -38 -135 -6 -7 -14 -10 -20 -7 -5 3 -4 13 4 22 12 15 11 16 -4 3 -13
-10 -16 -24 -13 -57 2 -24 0 -46 -5 -49 -6 -3 -10 -35 -10 -69 0 -47 4 -67 17
-77 14 -13 16 -11 11 13 -4 19 -1 25 9 21 7 -3 13 0 13 7 0 6 5 8 10 5 6 -3
10 1 10 11 0 13 6 15 31 10 17 -3 35 -6 40 -6 5 0 9 -7 9 -16 0 -8 5 -12 11
-8 6 3 15 0 20 -7 7 -10 8 -7 7 10 -4 34 41 59 60 34 8 -12 12 -13 12 -3 0 9
6 8 22 -6 19 -17 21 -17 15 -1 -4 11 -1 17 9 17 8 0 12 -4 9 -10 -3 -5 -1 -10
4 -10 7 0 11 23 11 56 0 30 -4 53 -8 50 -4 -2 -12 11 -18 30 -9 29 -9 34 2 30
17 -7 17 -5 0 29 l-14 27 -6 -29 c-8 -34 -49 -44 -65 -15 -7 11 -13 13 -18 6
-11 -15 -37 15 -41 48 -3 25 -1 26 28 23 20 -3 33 1 36 10 4 11 10 9 25 -6 23
-23 24 -29 4 -29 -17 0 -20 -16 -4 -25 14 -9 21 -1 21 27 -1 152 2 141 -57
192 -30 26 -56 45 -58 44 -6 -5 -37 30 -37 41 0 6 7 11 16 11 8 0 30 15 48 34
38 41 78 53 119 38 29 -11 29 -11 23 18 -6 33 3 43 24 30 12 -7 12 -12 2 -22
-20 -20 -15 -31 43 -91 50 -53 82 -117 69 -138 -2 -4 1 -11 7 -15 8 -5 9 -3 4
6 -6 9 -4 11 4 6 7 -5 10 -14 8 -20 -3 -7 1 -13 9 -13 21 0 28 36 10 55 -29
31 -86 112 -86 123 0 6 8 9 17 7 17 -3 51 22 54 40 1 4 11 13 22 21 15 11 22
12 25 3 2 -7 11 -12 19 -12 13 0 13 -3 3 -15 -20 -25 -2 -30 23 -8 34 32 69
33 89 3 17 -23 18 -23 18 -4 0 11 5 25 12 32 15 15 94 16 103 1 5 -6 12 -4 20
8 11 15 15 16 30 3 10 -8 28 -13 40 -12 13 2 34 -7 49 -21 17 -16 34 -23 46
-20 11 3 34 0 51 -7 29 -13 31 -16 25 -53 -6 -35 -5 -38 8 -28 8 7 13 18 10
26 -3 7 -1 16 5 20 6 3 11 -1 11 -9 0 -10 6 -13 15 -10 8 3 31 -3 50 -15 35
-21 35 -21 25 0 -6 11 -9 25 -6 32 3 9 5 8 5 -1 1 -7 5 -11 10 -7 5 3 17 -2
25 -11 13 -12 16 -12 16 -2 0 8 -5 19 -12 26 -9 9 -9 15 0 24 14 14 16 60 3
73 -6 6 -4 15 5 23 12 11 14 6 14 -33 0 -29 6 -52 16 -62 14 -15 14 -17 0 -25
-9 -5 -16 -22 -16 -40 0 -33 10 -33 14 -1 2 10 9 18 17 19 34 2 39 5 39 19 0
8 6 15 14 15 23 0 31 22 13 35 -24 17 -21 23 11 27 25 3 22 6 -33 34 -134 70
-275 109 -448 124 -126 11 -152 11 -254 -1z"/>
<path d="M1856 1884 c6 -24 5 -25 -14 -15 -27 14 -35 14 -30 -1 2 -6 -10 -24
-26 -40 -24 -21 -27 -27 -13 -28 18 0 23 -15 8 -24 -5 -4 -11 -1 -13 6 -5 15
-28 1 -28 -17 0 -8 25 -38 55 -68 l55 -53 35 16 c20 8 33 20 31 27 -9 22 13
24 31 3 21 -24 27 -25 47 -5 13 13 15 13 21 -6 6 -17 9 -19 16 -8 13 20 11 37
-2 19 -9 -12 -10 -11 -4 5 15 45 17 75 6 75 -6 0 -11 5 -11 11 0 13 -11 24
-87 82 -71 54 -86 58 -77 21z"/>
<path d="M946 1885 c-3 -8 -2 -22 1 -32 4 -11 3 -14 -5 -9 -7 4 -12 17 -12 29
0 16 -3 18 -9 8 -13 -20 -1 -51 18 -51 26 0 30 -8 18 -39 -14 -38 -3 -76 23
-78 11 -1 18 3 14 8 -3 6 4 7 20 3 19 -4 31 -1 44 14 9 11 28 23 42 27 23 7
23 7 7 -9 -9 -10 -17 -20 -17 -23 0 -4 3 -4 6 0 3 3 18 1 32 -4 33 -13 51 3
31 27 -12 16 -12 17 4 11 18 -7 24 8 7 18 -8 5 -7 11 1 21 6 8 10 16 8 18 -28
21 -81 47 -74 35 18 -27 14 -39 -9 -33 -14 3 -27 -1 -35 -10 -8 -9 -21 -16
-30 -16 -26 0 -61 43 -61 73 0 29 -14 36 -24 12z"/>
<path d="M1813 1373 c-8 -2 -13 -22 -13 -45 0 -31 -3 -39 -15 -34 -12 4 -14
-6 -13 -61 2 -45 -1 -68 -10 -71 -6 -2 -12 -13 -12 -24 0 -18 2 -19 16 -7 15
12 16 11 11 -6 -13 -48 -16 -81 -8 -94 8 -12 12 -12 25 2 9 8 16 21 16 27 0 7
7 9 16 6 8 -3 33 -3 55 0 37 6 39 8 36 39 -3 25 -1 32 9 28 19 -7 18 15 -1 33
-10 10 -15 35 -15 70 0 30 -4 54 -9 54 -5 0 -12 11 -15 25 -4 17 -11 23 -24
19 -13 -5 -14 -4 -3 4 31 22 -7 51 -46 35z"/>
<path d="M472 1293 c-2 -33 -15 -44 -26 -20 -5 9 -7 9 -12 -1 -3 -6 -9 -10
-13 -7 -5 2 -6 -97 -4 -220 l4 -225 -30 -6 c-17 -4 -28 -10 -25 -15 3 -5 -3
-9 -14 -9 -15 0 -18 5 -15 23 3 14 -2 29 -11 36 -10 9 -16 30 -16 57 0 24 -4
44 -10 44 -5 0 -10 7 -10 15 0 8 -4 15 -10 15 -5 0 -10 12 -10 26 0 41 -16 19
-29 -41 -11 -48 -15 -55 -37 -55 -21 0 -24 -5 -24 -34 0 -41 -13 -52 -37 -34
-20 14 -25 29 -28 73 -1 24 -5 30 -23 29 -15 0 -22 5 -22 18 0 10 7 18 15 18
8 0 15 -5 15 -11 0 -5 5 -7 10 -4 16 10 11 35 -6 35 -21 0 -43 28 -44 55 -1
14 -5 10 -16 -15 -22 -49 -12 -142 28 -265 l33 -100 150 -3 c137 -3 148 -2
130 12 -19 15 -18 15 17 16 20 0 38 -5 40 -12 3 -7 32 -12 81 -12 42 -1 77 -5
77 -9 0 -5 5 -5 11 -1 8 5 8 8 0 14 -7 4 -16 20 -21 36 -7 24 -8 25 -9 7 -1
-13 -5 -23 -10 -23 -4 0 -7 20 -5 45 3 33 1 43 -9 40 -9 -4 -12 30 -13 152 -1
108 -5 158 -13 161 -6 2 -11 10 -11 18 0 9 -4 12 -10 9 -5 -3 -10 4 -10 15 0
13 -8 24 -20 27 -20 5 -28 23 -10 23 6 0 10 11 10 25 0 21 3 23 23 16 24 -9
25 -28 1 -23 -8 2 -14 -5 -14 -14 0 -10 5 -14 15 -11 8 4 17 2 20 -3 16 -26
23 3 16 66 0 6 -14 9 -30 6 -28 -4 -30 -2 -34 34 -3 36 -4 37 -5 7z"/>
<path d="M946 1197 c-15 -19 -26 -42 -26 -52 0 -13 -5 -16 -25 -11 -21 5 -25
3 -25 -15 0 -17 -5 -20 -32 -17 -18 2 -34 -1 -36 -6 -1 -4 33 -10 75 -11 43
-2 72 -1 66 2 -19 7 -15 54 7 91 21 34 38 45 20 13 -5 -11 -10 -28 -9 -38 1
-18 1 -17 15 27 3 9 15 -3 33 -35 l27 -50 -38 -42 c-35 -39 -52 -93 -29 -93 5
0 9 12 9 26 0 26 55 94 67 82 3 -3 -2 -27 -10 -53 -20 -56 -12 -69 18 -33 12
14 35 34 51 44 29 18 29 18 18 -3 -7 -12 -24 -31 -38 -42 -35 -28 -25 -37 16
-16 18 9 34 14 37 12 2 -3 -5 -11 -17 -17 -12 -6 -19 -14 -16 -17 7 -8 76 37
76 49 0 7 -14 8 -37 5 l-36 -6 28 29 c39 41 25 48 -34 17 l-49 -25 5 34 c3 20
1 40 -7 49 -11 13 -9 19 6 36 21 23 56 43 94 53 l25 7 -24 -21 c-13 -11 -21
-23 -18 -27 4 -3 23 11 42 30 l36 36 -6 -32 c-4 -17 -13 -42 -21 -54 -8 -12
-14 -25 -14 -28 0 -3 32 -4 71 -3 54 2 67 5 56 13 -10 7 -12 16 -6 27 5 9 7
23 4 30 -7 18 -35 19 -35 1 0 -7 4 -13 9 -13 5 0 7 -9 4 -19 -4 -17 -56 -35
-67 -24 -9 10 8 53 23 54 10 0 11 2 4 6 -7 2 -13 16 -13 29 0 29 4 29 -65 3
-61 -23 -65 -22 -68 10 -1 11 -3 21 -5 21 -10 0 -62 -35 -62 -42 0 -19 -20 -6
-26 17 -8 33 -18 32 -48 -8z"/>
<path d="M801 1052 c-1 -13 4 -32 9 -43 9 -16 7 -21 -15 -29 -31 -12 -32 -21
-4 -38 l21 -14 -26 -27 c-33 -34 -33 -41 3 -41 24 0 28 -4 26 -23 -5 -39 -28
-69 -51 -64 -12 2 -21 -2 -21 -9 0 -7 5 -10 10 -7 6 3 7 1 3 -5 -4 -7 -14 -12
-22 -12 -8 0 -12 -4 -9 -10 3 -5 -1 -10 -10 -10 -17 0 -18 -1 -76 -49 -20 -17
-47 -35 -60 -40 -17 -7 -19 -10 -6 -10 9 -1 17 -8 17 -16 0 -8 5 -15 10 -15 7
0 7 6 0 20 -6 11 -7 20 -2 20 14 0 33 -26 25 -33 -3 -4 -1 -7 6 -7 8 0 7 -7
-4 -23 -15 -23 -14 -23 14 -19 31 4 91 -22 91 -39 0 -6 -7 -8 -15 -5 -9 3 -18
-1 -22 -9 -4 -12 -9 -13 -18 -5 -10 8 -15 8 -20 -1 -6 -8 -10 -7 -16 2 -7 11
-9 11 -9 1 0 -10 -4 -10 -16 2 -12 13 -18 13 -29 3 -10 -10 -8 -13 14 -20 49
-16 92 -16 98 -1 3 8 14 14 25 14 16 0 19 5 13 28 -4 22 1 34 28 60 31 30 39
33 73 27 l39 -6 -32 15 c-36 16 -40 34 -19 74 8 15 24 57 35 95 12 37 32 85
46 107 27 43 31 55 15 45 -9 -5 -56 -99 -84 -165 -3 -8 -4 12 -1 45 5 67 21
117 48 159 20 30 18 46 -3 21 -26 -31 -50 -12 -71 54 -7 25 -7 25 -8 3z"/>
<path d="M1410 1048 c-5 -13 -17 -33 -25 -44 -15 -21 -15 -21 12 -16 26 5 27
4 10 -12 -9 -10 -22 -14 -28 -10 -19 11 10 -35 49 -78 l36 -40 -44 5 c-26 3
-49 12 -57 23 -12 16 -13 15 -13 -12 0 -38 -23 -122 -43 -159 -20 -37 -20 -33
-2 35 17 64 19 100 5 100 -5 0 -10 -16 -10 -35 0 -20 -8 -66 -17 -103 l-18
-67 -7 40 c-6 36 -6 35 -4 -12 l3 -53 -34 -6 c-22 -4 -30 -9 -23 -14 8 -5 -30
-29 -101 -64 -62 -32 -114 -64 -115 -72 -4 -27 17 -84 31 -84 7 0 22 -3 32 -6
15 -5 15 -4 -2 7 -31 20 -42 33 -37 47 2 6 -1 12 -7 12 -20 0 -11 18 12 24 27
7 57 -24 57 -60 0 -16 6 -24 17 -24 23 0 201 101 272 155 71 54 175 105 231
112 22 3 40 9 40 12 0 17 -40 88 -59 105 -13 12 -21 31 -21 53 0 20 -10 49
-25 70 -13 20 -22 40 -19 45 3 5 1 7 -3 6 -5 -2 -25 13 -44 33 -19 20 -41 38
-49 41 -11 4 -12 8 -4 19 13 17 25 49 18 49 -2 0 -9 -10 -14 -22z"/>
<path d="M1 483 l-1 -483 518 1 c482 1 512 2 437 16 -44 8 -125 30 -180 49
-55 19 -116 38 -135 43 -56 12 -268 167 -359 261 -64 66 -160 214 -198 303
-31 75 -67 197 -76 262 -2 17 -5 -187 -6 -452z"/>
<path d="M2350 921 c0 -85 -102 -341 -172 -432 -19 -25 -37 -50 -39 -55 -7
-16 -173 -169 -226 -207 -132 -96 -300 -167 -488 -207 l-90 -19 513 0 512 -1
0 475 c0 261 -2 475 -5 475 -3 0 -5 -13 -5 -29z"/>
</g>
</svg>
